<?xml version="1.0" encoding="utf-8"?>
<!-- Generator: Adobe Illustrator 19.1.0, SVG Export Plug-In . SVG Version: 6.00 Build 0)  -->
<svg version="1.1" id="Layer_1" xmlns="http://www.w3.org/2000/svg" xmlns:xlink="http://www.w3.org/1999/xlink" x="0px" y="0px"
	 viewBox="0 0 500 500" style="enable-background:new 0 0 500 500;" xml:space="preserve">
<style type="text/css">
	.st0{fill:#204181;}
</style>
<path class="st0" d="M189,207.9c0.1-0.5,0.1-1.1,0.2-1.6c0.9-1.5-0.2-3.4,0.8-4.9c2.6-19.4,8.6-37.9,14.4-56.5
	c6.2-19.7,11.9-39.5,15.6-59.9c1.4-7.8,2.6-15.8,4.5-23.5c0.8-1.6-0.1-3.4,0.8-4.9c0.1-0.8,0.1-1.6,0.2-2.4c0.9-2.2-0.2-4.7,0.7-6.9
	c0.1-1.4,0.1-2.8,0.2-4.2c0.5-3.2,0.8-6.3-0.1-9.5c-2.3-0.3-2.6-2.7-3.9-4c-0.4-1.8-0.5-3.7,0-5.5c2.7-2.7,2.6-6.7,2-9.3
	c-1.8-7.7,0.4-12.3,8.4-14c2.8-1,5.9,0.3,8.7-0.7c5.3,0,10.6,0,15.9,0c2.9,1,5.9-0.2,8.8,0.8c5.1,0.4,9.9,1.6,10.5,7.8
	c0.3,3.1,0.1,6.4-0.7,9.4c-0.4,1.6-0.3,2.6,0.4,3.8c3.3,5.2,2.9,8-2.2,11.6c-0.9,0.6-0.8,1.1-0.6,1.9c0.9,1.9-0.1,4.1,0.7,6
	c0.1,1.1,0.1,2.2,0.2,3.3c1,2.9-0.2,5.9,0.8,8.8c0,0.8,0.1,1.5,0.1,2.3c0.9,1.6,0,3.5,0.8,5.1c0.1,0.8,0.1,1.5,0.2,2.3
	c0.9,1.5-0.1,3.3,0.8,4.9c0,0.5,0.1,1.1,0.1,1.6c0.9,1.5-0.2,3.3,0.8,4.8c1.6,14,4.7,27.7,8.2,41.3c6.1,23.9,14.8,47,20.1,71.1
	c1.6,7.3,2.9,14.7,4.4,22.1c0.9,1.6,0,3.5,0.8,5.1c0.1,1.1,0.1,2.1,0.2,3.2c0.7,1.6,0,3.5,0.7,5.1c0.1,1.1,0.1,2.1,0.2,3.2
	c1,2.9-0.3,6,0.8,8.9c0,28.5-0.1,56.9-0.1,85.4c0,4.6,0.1,9.2,0.1,13.9c-0.7,1.8-0.4,3.7-0.4,5.5c0,23,0,46,0,68.9
	c0,1.7,0.3,3.4-0.4,5c-0.3,8.2-0.7,16.4-0.1,24.6c-0.6,6.1-0.7,12.2,0,18.3c-0.1,0.3-0.1,0.5,0.1,0.8c0.7,4.6,0.6,9.3,0.1,13.9
	c-1.6,5-1.3,10.2-2.7,15.4c-1.7,6.5-5,10.3-11.4,11.7c-1.6,0.7-3.5,0-5.2,0.7c-3.8,0.4-7.7,0.7-11.5,1.1c-2.3,1-4.7-0.1-7,0.8
	c-12.7,0-25.5,0-38.2,0c-1.9-0.9-4,0.2-5.8-0.7c-10.6,1-20.9-1.1-31.4-2.2c-6.5-0.6-11.4-6.3-12-13.4c-0.2-2.7-2.2-5-1.3-7.8
	c-0.9-1.9,0.2-4-0.7-5.8c0.4-16,1.9-32,0.8-48c-0.7-1.3-0.4-2.7-0.4-4.1c0-58.2,0-116.5,0-174.7c0-1.4-0.3-2.8,0.4-4.1
	c0-2.3,0.1-4.6,0.1-6.9c1-2.6-0.2-5.4,0.8-7.9c0.1-1.1,0.1-2.2,0.2-3.3c0.9-1.9-0.1-4.1,0.7-6c0.1-0.9,0.1-1.7,0.2-2.6
	C189.2,211.3,188.2,209.5,189,207.9z"/>
</svg>
