<?xml version="1.0" encoding="utf-8"?>
<!-- Generator: Adobe Illustrator 19.1.0, SVG Export Plug-In . SVG Version: 6.00 Build 0)  -->
<svg version="1.1" id="Layer_1" xmlns="http://www.w3.org/2000/svg" xmlns:xlink="http://www.w3.org/1999/xlink" x="0px" y="0px"
	 viewBox="0 0 500 500" style="enable-background:new 0 0 500 500;" xml:space="preserve">
<style type="text/css">
	.st0{fill:#CB4732;}
	.st1{fill:#CA4732;}
	.st2{fill:#C94832;}
	.st3{fill:#214180;}
	.st4{fill:#CB4632;}
	.st5{fill:#C94732;}
	.st6{fill:#CB4631;}
	.st7{fill:#C94833;}
	.st8{fill:#CA4631;}
	.st9{fill:#CC4731;}
	.st10{fill:#243C77;}
	.st11{fill:#CF4730;}
	.st12{fill:#A34131;}
	.st13{fill:#243C78;}
	.st14{fill:#A13D2D;}
	.st15{fill:#A03A29;}
	.st16{fill:#223F7C;}
	.st17{fill:#233D79;}
	.st18{fill:#AC4232;}
	.st19{fill:#A63826;}
	.st20{fill:#AC4231;}
	.st21{fill:#A83725;}
	.st22{fill:#243B76;}
	.st23{fill:#A24032;}
	.st24{fill:#BF3F29;}
	.st25{fill:#BB3D28;}
	.st26{fill:#BA3D29;}
	.st27{fill:#233E7B;}
	.st28{fill:#FFFFFF;}
</style>
<path class="st0" d="M496.7,218.6c-3.6-0.2-6.3,2-9,3.8c-5.7,3.7-9.3,7-0.2,11.6c5.2,2.6,8.2,7-0.4,10.3c-3.3,1.3-4.6,6.2-9.1,5.9
	c-2.4-2.5,0-6-2-8.6c-3.5-49.1-19.2-93.6-50.8-133.4c7.7-0.9,14.6-1.9,21.5-2.5c5.8-0.5,7.9,1.3,4.3,7.1c-2.5,4-4.1,8.6-6.1,13
	c1.9,0.9,4,2.4,6.2,2.9c11.5,2.6,15.2,8.4,8.7,19.3c-3.3,5.5,2.2,6.8,5.1,7.6c5.7,1.4,14.4,0.5,16.2,4.9c2.3,5.5-6,9-9.8,13.2
	c-3.8,4.2-0.4,5.1,2.3,6.3c6.1,2.7,12.2,5.2,20.8,8.9c-3.6,2.5-6.2,3.8-8.1,5.8c-10.7,10.5-10.7,10.7,2.8,17.2
	c2.3,1.1,4.5,3.4,7.6,2.7C496.7,215.8,496.7,217.2,496.7,218.6z"/>
<path class="st0" d="M218.3,494.9c-1.5-1.9-3-3.7-4.4-5.6c-10.2-13-10.4-13.3-23.8-4.8c-6.9,4.4-9.7,0.1-11.5-4.8
	c-4.1-10.9-10.9-13.3-21.8-9.9c-13.6,4.3-13.7,3.8-11.9-9.6c0.4-3.1,0.1-6.2,0.1-9.4c6.6,0.7,11,5.9,16.9,8.1
	c19.1,7.2,39,11.8,59.1,15c2.7,0.4,5.3,1.1,8,1.7c1.5,2.9,4.4,0.5,6.4,1.8c1.8,0.7,3.6,1.2,4.5,3.1c-3.3,9.1-12,10.9-19.4,14.2
	C219.7,494.9,219,494.9,218.3,494.9z"/>
<path class="st1" d="M279,476.2c-5.6,6.2-11.2,12.5-16.8,18.7c-1.4,0-2.8,0-4.2,0c-4-2.6-8.8-3.9-11.9-7.8c-1.9-2.4-5.7-4.9-1.3-8.4
	c7-2.5,14.4,2.6,21.3-1.1c3.5-4.2,8.3-2.9,12.7-3.2c0.8,0.3,1,0.7,0.8,1.1C279.5,476,279.2,476.2,279,476.2z"/>
<path class="st1" d="M255.7,21.7c7-5.5,14.1-11.1,21.1-16.6c0.7,0,1.4,0,2.1,0c-0.8,7.3,5.7,12.1,6.7,18.8c-5,1.8-10.1,1.5-15.1,0.1
	c-3.5,0.6-7,0.9-10.4-0.2C259,22.4,256.7,23.4,255.7,21.7z"/>
<path class="st2" d="M21.4,254.4c-7.8-0.7-11-9.6-18.7-10.7c0-0.7,0-1.4,0-2.1c6.3-3.6,12.5-7.2,18.8-10.9
	C23.2,238.6,23.2,246.5,21.4,254.4z"/>
<path class="st3" d="M467.2,268.8c-2,36.3-14.2,69.3-33.7,99.4c-20.9,32.1-48.8,57.2-82.5,75.3c-21.8,11.7-44.8,20.4-69.9,22
	c-4.2-2-8.7-0.2-12.6-1c-1.8,0.1-0.1,2.4-0.6,1.1c-0.1-0.3,0.1-0.5,0.7-0.5c3-0.3,6.1-1.2,8.9,0.9c-4.9,2.3-10,1.9-15.2,1.6
	c-7.6-1.3-15.3-1.4-22.9,0c-5.8,0.4-11.6,0.7-17.1-1.7c1.7-1.9,3.6-0.8,5.3-1.2c-2.9,0.2-6-0.7-9.1,0.8c-29-2.5-55.1-13.5-80-27.9
	c-23.8-13.7-43.3-32.4-60.3-53.6c-24.1-30-39-64.2-43.8-102.6c1.6-3.2,0.8-6.4,0.7-8.6c0.3,0.5,0.3,2-1.3,3.1
	c-2.3-5-1.8-10.2-1.5-15.5c1.4-6.9,1.4-13.9,0-20.8c1.6-42.2,15.2-80.3,39.7-114.5c7.2-10,14.5-20.1,24.2-28.1
	c4.9-2.1,8.7-5.3,10.7-10.4c33.9-29.4,72.5-48.2,117.8-52c4.3,2.1,8.9,0.2,12.9,1.1c1.7,0,0.5-2.4,0.6-1c0,0.1-0.1,0.1-0.3,0.2
	c-2.6,1.1-5.2,1.2-7.5-0.6c13-2.7,26-2.6,39-0.1c-3.2,2.4-6.6,1.6-9.9,1.1c5.8-0.1,11.7,1.2,17.5-0.5c35.5,2.7,67.6,15.4,96,36
	C425,108.5,458.4,158.8,467,224c0.3,2.4,0.1,4.8,0.1,7.3C465.8,243.7,465.7,256.3,467.2,268.8z"/>
<path class="st0" d="M438.1,377.6c0.2,4.4,2,8.5,2.2,13c0.5,9.9-0.9,16.8-13.2,14.4c-4.5-0.9-6.5,1.2-5.9,5.8c0.2,1.4,0,2.8,0,4.2
	c-0.1,14.6-0.1,15.3-14.2,14.9c-7.4-0.2-7.6,4.8-8.5,8.8c-3.6,14.8-3.3,14.9-16.5,9.6c-10.9-4.4-10.9-4.4-11,7.6
	c0,16.8-0.4,17.4-14.7,9.6c-8.3-4.5-11.5-1.5-14.3,5.6c-4.9,12.8-5,12.8-16.5,5.2c-3.8-2.5-8.8-3.7-11-8.4
	c17.5-5.8,33.9-14,49.8-23.1c27.1-15.5,49-36.8,67.8-61.6C433.9,380.9,434.9,378.1,438.1,377.6z"/>
<path class="st0" d="M477.9,254c4.8,4.5,9.6,9,14.1,13.2c-2.7,7.4-14.2,7.6-13.4,14.7c0.7,5.9,6.7,11.5,13.5,16.4
	c-7.1,2.7-12.5,4.7-18.5,7c1.8,1.9,3.4,3.3,4.6,5c8.8,11.7,8.9,12-5.1,16.3c-5.7,1.7-7.5,3.5-3.9,8.9c2.4,3.7,3.8,7.9,5.8,12.1
	c-6.1,1.2-12,2.4-17.7,3.5c-0.1,1-0.4,1.7-0.2,2.3c8.4,22.3,7.9,22.9-19.2,24.4c6-14.5,14.9-27.4,20.9-41.9c8.7-21,12.6-43,16.5-65
	c2.4-2.6,1.5-5.4,0.5-8.2c0-0.7,0-1.4,0-2C477.7,258.6,475.8,255.7,477.9,254z"/>
<path class="st0" d="M21.5,225c-5.1-3.2-8.7-7.8-12.8-12.3c0.8-0.9,1.2-2,2-2.2c13-4.1,13.1-4.1,6.8-16c-1.7-3.2-1.3-5.1,2.3-6.6
	c2.6-1.1,5.7,0.6,8.1-2.1c-2.7-5.6-5.5-11.4-8.3-17.1c0.3-0.6,0.5-1.5,0.9-1.7c16.3-5.1,17.4-5.4,13.1-20.6
	c-2.6-9.2,0.1-10.1,7.5-9.3c3.1,0.3,6.3,0,9.4,0c0.9-0.7,1.8-0.6,2.6,0.2c-13.4,25-22.1,51.6-27.5,79.3
	C22.8,218.5,27.3,224.3,21.5,225z"/>
<path class="st4" d="M53.2,137.1c-0.9-0.1-1.8-0.1-2.6-0.2c-1.8-6.4-3.4-12.9-5.4-19.2c-1.2-3.9-0.7-5.4,3.8-5.9
	c20.4-2.4,20.4-2.5,20.6-23c0-1.7,0-3.4,0-5.9c6.7,1.3,12.7,2.4,18.8,3.6c1.5,1.4-0.2,3.1,0.3,4.6C75.6,105.4,62.8,120,53.2,137.1z"
	/>
<path class="st1" d="M34.1,321.9c-4.4-2.2-8.9-3.5-13.9-2.8c-2.5,0.3-5.4,0-6.1-2.6c-0.3-1.3,1.8-3.5,3.3-4.8c2.9-2.5,6-4.7,10-7.8
	c-3.2-1.2-4.2-1.4-5.1-1.8c-13.5-7.3-13.7-7.5-3.6-18.8c3.3-3.7,2.7-5.9-0.7-8.3c-3.7-2.7-7.6-5.2-12.5-8.5
	c5.9-3.1,10.8-5.7,15.7-8.3c3,4.6-0.5,10.2,2.1,14.9C27,289.3,30.6,305.6,34.1,321.9z"/>
<path class="st5" d="M138.7,51.1c-0.3-5.5,2.8-10.4,2.4-16.1c-0.2-3.1,1.7-5.8,6.2-3.8c3.6,1.7,8.1,1.8,11.5,3.8
	c5.8,3.5,8.5-0.2,11-3.8c8.5-12.5,8.4-12.6,17.4-1.2c-0.9,1.9-2.4,3.1-4.4,3.8C168.1,39.6,153.4,45.4,138.7,51.1z"/>
<path class="st5" d="M182.8,33.8c1.5-1.3,2.9-2.5,4.4-3.8c7.7-2.3,9.5-10.2,13.3-15.5c4.3-6.1,5.9-4.7,10.8-1.5
	c4.8,3.2,8.1,8.1,13.1,10.8c-2.9,3.1-7.5-1.2-10.2,2.5C203.7,28.8,193.3,31.3,182.8,33.8z"/>
<path class="st6" d="M92.8,415.5c-6.8-0.9-13.4-3.1-20.4-2.2c-7.4,0.9-8.5-2.1-5-8.1c1.7-2.9,3-6.1,4.6-9.6
	c-3.9-1.3-7.3-2.4-10.8-3.6c-1.9-2.3-2.6-4.9-0.4-7.1c2.5-2.7,4.7,0.3,7,1.1C76.2,395.8,84.5,405.6,92.8,415.5z"/>
<path class="st7" d="M289.3,25.9c3.9-5,10.4-5.5,15.1-9.4c5-4.2,9.4-3.5,11.2,3.3c1.2,4.4,5.7,9.4,2.3,13.3c-3.4,3.9-8.2-1-12.4-1.6
	c-4.7-0.7-9.3-2.4-14-3.7C290.5,27.5,289.8,26.8,289.3,25.9z"/>
<path class="st0" d="M142.8,448.9c0.1,2.2,0,3.8-2.9,4.2c-6.3,0.9-12.5,2-18.6,3.6c-4.1,1.1-5.7,0.1-5.6-4.1
	c0.1-6.2,0-12.3-0.1-18.5C124,440.3,133.2,445,142.8,448.9z"/>
<path class="st6" d="M115.8,434.3c-7.8,0.8-14.2,5.4-23.3,8.8c0-9.8,0-18.8,0-27.8C101.6,420.1,108.8,427,115.8,434.3z"/>
<path class="st1" d="M352.3,46.7c1.7,0,3.5,0.5,5.1,0c22.2-6.8,22.5-6.6,21.8,17.2l0.2-0.2c-9.9-3.3-17.9-10.1-27.2-14.7
	c-0.6-0.6-0.8-1.1-0.6-1.6C351.9,46.9,352.1,46.7,352.3,46.7z"/>
<path class="st8" d="M88.7,91c-2.4-1.4-0.5-3-0.3-4.6c3.9-4.9,1.8-10.6,2.1-16c0.3-5.3,2.4-8.3,7.8-6c5.8,2.4,11.6,0.8,17.3,1.2
	c0.6,0.4,0.8,0.8,0.6,1.2c-0.2,0.4-0.4,0.6-0.6,0.6C106.1,74.6,96.6,81.9,88.7,91z"/>
<path class="st6" d="M426.9,81c-3.2,8,0.2,16.5-2.7,25.5c-7.7-8.1-14.6-15.3-23.1-24.3C411,84.1,418.1,78.9,426.9,81z"/>
<path class="st5" d="M310.3,467.8c-0.3,1.3-0.3,2.7-0.9,3.8c-9,18.9-9,18.9-26.4,6.7c-2-4.3,4.2-1.8,3.9-4.7
	C294.8,471.7,302.6,469.7,310.3,467.8z"/>
<path class="st1" d="M352.3,46.7c0,0.8-0.1,1.6-0.1,2.3c-9.6-4.2-19.2-8.5-30.3-13.4c10.2-2.4,18.8-4.5,27.4-6.6
	C350.3,34.7,351.3,40.7,352.3,46.7z"/>
<path class="st2" d="M54.9,369.6c-6.6-1.2-13.1-3.3-22.1-2.2c5.5-7.6,5.4-16.1,11.8-21.6c4.1,7.2,8.1,14.4,12.2,21.5
	C56.1,368.1,56.2,369.4,54.9,369.6z"/>
<path class="st6" d="M379.2,63.9c3.7-0.2,7.3-1,10.9-2c12.3-3.5,12.4-3.2,12.4,9.6c0,2.7,0,5.5,0,10.3c-8.6-6.5-17.1-10.5-23.1-18.1
	C379.4,63.7,379.2,63.9,379.2,63.9z"/>
<path class="st8" d="M115.7,67.4c0-0.6,0-1.2-0.1-1.8c0.1-6.7-2-15.5,3.1-19.2c5.1-3.8,11.4,4.4,17.9,4.7
	C132,59.6,122.2,61.5,115.7,67.4z"/>
<path class="st1" d="M42.5,344.2c-7.2,0.2-13.7-2.1-20.2-4.7c3.5-5.9,6.7-12.1,11.7-17C38.9,328.9,40.8,336.5,42.5,344.2z"/>
<path class="st4" d="M54.9,369.6c0.6-0.8,1.2-1.5,1.8-2.3c3.7,6.2,7.4,12.4,11.1,18.6c-5.8-1.9-7.3,0.8-6.6,6
	c-12.5,0.1-13.4-1.1-9.7-11.9C52.8,376.6,53.8,373.1,54.9,369.6z"/>
<path class="st9" d="M228.7,22c0.7-1.1,1.3-2.3,2.1-3.3c11.7-13.3,11.7-13.3,21.1,3c-4.6,3-10.2-0.6-14.9,2.2
	c-1.9,0.1-3.9,0.1-5.8,0.2C228.8,25.3,228.6,23.9,228.7,22z"/>
<path class="st10" d="M467.2,268.8c-3.1-12.5-3-25.1,0-37.6C468.2,243.7,468.3,256.3,467.2,268.8z"/>
<path class="st11" d="M243.1,480.3c-1.2,0-2.5,0-3.7,0c-1.8-0.1-3.4-0.4-4.4-2.1c1-0.8,2.1-1.1,3.4-1.1c6.7,0.5,13.4-1.1,20,0.9
	c2.6,0.4,5.1-3,7.8-0.4C259,483.1,250.8,478.9,243.1,480.3z"/>
<path class="st12" d="M21.4,254.4c0-7.9,0-15.8,0.1-23.6c0.7-0.6,1.5-1.2,2.2-1.8c-0.1,9.1-0.2,18.2-0.3,27.4c-0.5,0.9-1,0.9-1.5,0
	C21.6,255.7,21.4,255.1,21.4,254.4z"/>
<path class="st13" d="M239.2,467.5c7.6-3.1,15.3-3,22.9,0C254.5,468.4,246.9,468.4,239.2,467.5z"/>
<path class="st14" d="M289.3,25.9c0.7,0.6,1.4,1.3,2.1,1.9c-7-1.3-14.3-0.5-20.9-3.8c5,0,10.1-0.1,15.1-0.1
	C286.9,24.6,288.1,25.2,289.3,25.9z"/>
<path class="st15" d="M237,23.9c4.5-3.9,10-1.1,14.9-2.2c1.3,0,2.5,0,3.8,0c1.7,0.2,3.4,0.4,4.4,2.1C252.4,23.8,244.7,23.8,237,23.9
	z"/>
<path class="st16" d="M106.8,86.5c0.1,7.3-4.7,9.4-10.7,10.4C99.7,93.4,103.2,90,106.8,86.5z"/>
<path class="st10" d="M276.8,34.6c-6.1,4-12.5,0.7-18.7,0.2c3.7-0.3,7.4-0.6,11.1-0.8C271.7,34.2,274.3,34.4,276.8,34.6z"/>
<path class="st17" d="M32.2,239.6c3,6.9,3,13.9,0,20.8C31.3,253.5,31.3,246.5,32.2,239.6z"/>
<path class="st18" d="M258.4,478c-7.1,0-14.2,0.1-21.3,0.1c-0.7-0.4-0.9-0.8-0.7-1.2c0.2-0.4,0.4-0.7,0.6-0.7
	C244.1,476.8,251.6,473.7,258.4,478z"/>
<path class="st19" d="M228.7,22c0.8,0.7,1.6,1.4,2.5,2c-5.4,2.6-11.3,1.8-17,2.3c2.4-4.9,6.9-1.2,10.2-2.5
	C226.6,24.9,227.2,22.5,228.7,22z"/>
<path class="st20" d="M477.9,254c-0.2,2.3,0.3,4.8-2,6.5c0-6.3,0-12.6,0-18.9c2.8,2.4,1.5,5.7,2,8.6
	C477.9,251.5,477.9,252.7,477.9,254z"/>
<path class="st21" d="M21.8,256.3c0.5,0,1,0,1.5,0c0.3,5.6,2,11.1,0.1,16.7c-3.8-4.5-1.1-9.9-2.1-14.9
	C21.4,257.5,21.6,256.9,21.8,256.3z"/>
<path class="st22" d="M230.2,34.1c3,0.3,6,0.6,9.1,0.9c-5,1.2-10,3-14.7-0.4C226.4,34.4,228.3,34.2,230.2,34.1z"/>
<path class="st17" d="M277.3,465.8c-3.6-0.2-7.3-0.5-10.9-0.7c5-1.3,9.9-3.1,14.6,0.3C279.8,465.6,278.6,465.7,277.3,465.8z"/>
<path class="st23" d="M21.5,225c3.5-1.8,0.8-6.7,4.2-8.5c-0.2,4.4,1.1,9-2.2,12.8C24.7,226.9,21.6,226.6,21.5,225z"/>
<path class="st24" d="M287,473.6c2,4.3-4.1,1.9-3.9,4.7c-1.3-0.7-2.7-1.4-4-2.1c0-0.6,0-1.1-0.1-1.7
	C281.6,474.2,284.3,473.9,287,473.6z"/>
<path class="st13" d="M218.3,465.4c3.2-3.3,6.9-1.4,10.5-0.3c-2.2,0.2-4.5,0.4-6.7,0.7C220.8,465.6,219.6,465.5,218.3,465.4z"/>
<path class="st25" d="M475.9,262.5c3,2.9,2.5,6.8,1.4,9.7c-0.7,2.1-1.3-0.9-1.9-1.5C475.6,268,475.8,265.3,475.9,262.5z"/>
<path class="st10" d="M33.7,275.9c0.3-1.6,0.5-3.2,0.8-4.8c1.5,3.5,2.8,7-0.2,10.3C34.1,279.5,33.9,277.7,33.7,275.9z"/>
<path class="st26" d="M237,476.2c0.1,0.6,0.1,1.3,0.1,1.9c-0.7,0-1.4,0.1-2.1,0.1c-1.9-1.2-5.6,2.2-6-2.5
	C231.6,475.9,234.3,476.1,237,476.2z"/>
<path class="st27" d="M75.7,347.9c2.6-4.5,6.5-7.6,10.4-10.8C85.2,343.2,83,347.9,75.7,347.9z"/>
<path class="st13" d="M188.6,98.6c0.2-1.9,0.3-3.7,0.5-5.6c3.4,4.7,1.7,9.7,0.4,14.7C189.2,104.7,188.9,101.7,188.6,98.6z"/>
<path class="st13" d="M190.9,80.1c0.1-1.3,0.2-2.5,0.3-3.8c3.4,3.2,1.4,6.9,0.3,10.5C191.3,84.6,191.1,82.3,190.9,80.1z"/>
<path class="st10" d="M42.8,225.6c-0.2,2.5-0.4,5.1-0.6,7.6c-3-2.7-1.8-6.2-1.7-9.5c0.1-1.5,1.2-0.9,1.7,0
	C42.6,224.2,42.6,225,42.8,225.6z"/>
<path class="st13" d="M193,61.3c0.1-1.3,0.2-2.6,0.3-3.9c3,3.2,2.1,6.8,1.1,10.7C192.3,66,193.6,63.5,193,61.3z"/>
<path class="st10" d="M42.3,268.9c0.2,1.9,0.3,3.8,0.5,5.7c-0.4,0.9-0.7,1.7-1.1,2.6c-0.4-0.3-1.1-0.6-1.1-0.9
	C40.4,273.6,39.7,270.8,42.3,268.9z"/>
<g id="Layer_2">
	<circle class="st28" cx="250" cy="250" r="207.5"/>
</g>
</svg>
