<?xml version="1.0" encoding="utf-8"?>
<!-- Generator: Adobe Illustrator 19.1.0, SVG Export Plug-In . SVG Version: 6.00 Build 0)  -->
<svg version="1.1" id="Layer_1" xmlns="http://www.w3.org/2000/svg" xmlns:xlink="http://www.w3.org/1999/xlink" x="0px" y="0px"
	 viewBox="0 0 500 500" style="enable-background:new 0 0 500 500;" xml:space="preserve">
<style type="text/css">
	.st0{fill:#CB4732;}
	.st1{fill:#CA4732;}
	.st2{fill:#C94832;}
	.st3{fill:#214180;}
	.st4{fill:#CB4632;}
	.st5{fill:#C94732;}
	.st6{fill:#CB4631;}
	.st7{fill:#C94833;}
	.st8{fill:#CA4631;}
	.st9{fill:#CC4731;}
	.st10{fill:#243C77;}
	.st11{fill:#CF4730;}
	.st12{fill:#A34131;}
	.st13{fill:#243C78;}
	.st14{fill:#A13D2D;}
	.st15{fill:#A03A29;}
	.st16{fill:#223F7C;}
	.st17{fill:#233D79;}
	.st18{fill:#AC4232;}
	.st19{fill:#A63826;}
	.st20{fill:#AC4231;}
	.st21{fill:#A83725;}
	.st22{fill:#243B76;}
	.st23{fill:#A24032;}
	.st24{fill:#BF3F29;}
	.st25{fill:#BB3D28;}
	.st26{fill:#BA3D29;}
	.st27{fill:#FFFFFF;}
	.st28{fill:#FEFEFF;}
	.st29{fill:#EAEBF1;}
	.st30{fill:#EFF0F5;}
	.st31{fill:#2D4780;}
	.st32{fill:#24366F;}
	.st33{fill:#243771;}
	.st34{fill:#BAC1D7;}
	.st35{fill:#233E7B;}
	.st36{fill:#304B84;}
	.st37{fill:#ADB8D0;}
	.st38{fill:#556594;}
	.st39{fill:#3C558B;}
	.st40{fill:#354E85;}
	.st41{fill:#243D78;}
	.st42{fill:#244381;}
	.st43{fill:#2A447F;}
	.st44{fill:#243C76;}
	.st45{fill:#4A5F92;}
	.st46{fill:#51699C;}
	.st47{fill:#475E93;}
	.st48{fill:#38538C;}
	.st49{fill:#243974;}
	.st50{fill:#2F4A83;}
	.st51{fill:#475B8D;}
	.st52{fill:#6F82AE;}
	.st53{fill:#455A8D;}
	.st54{fill:#385086;}
	.st55{fill:#2C4882;}
	.st56{fill:#526799;}
	.st57{fill:#8091B7;}
	.st58{fill:#42588D;}
	.st59{fill:#5870A2;}
	.st60{fill:#24356E;}
	.st61{fill:#233C77;}
	.st62{fill:#F2F3F7;}
	.st63{display:none;}
	.st64{display:inline;fill:#FFFFFF;}
</style>
<path class="st0" d="M496.7,218.6c-3.6-0.2-6.3,2-9,3.8c-5.7,3.7-9.3,7-0.2,11.6c5.2,2.6,8.2,7-0.4,10.3c-3.3,1.3-4.6,6.2-9.1,5.9
	c-2.4-2.5,0-6-2-8.6c-3.5-49.1-19.2-93.6-50.8-133.4c7.7-0.9,14.6-1.9,21.5-2.5c5.8-0.5,7.9,1.3,4.3,7.1c-2.5,4-4.1,8.6-6.1,13
	c1.9,0.9,4,2.4,6.2,2.9c11.5,2.6,15.2,8.4,8.7,19.3c-3.3,5.5,2.2,6.8,5.1,7.6c5.7,1.4,14.4,0.5,16.2,4.9c2.3,5.5-6,9-9.8,13.2
	c-3.8,4.2-0.4,5.1,2.3,6.3c6.1,2.7,12.2,5.2,20.8,8.9c-3.6,2.5-6.2,3.8-8.1,5.8c-10.7,10.5-10.7,10.7,2.8,17.2
	c2.3,1.1,4.5,3.4,7.6,2.7C496.7,215.8,496.7,217.2,496.7,218.6z"/>
<path class="st0" d="M218.3,494.9c-1.5-1.9-3-3.7-4.4-5.6c-10.2-13-10.4-13.3-23.8-4.8c-6.9,4.4-9.7,0.1-11.5-4.8
	c-4.1-10.9-10.9-13.3-21.8-9.9c-13.6,4.3-13.7,3.8-11.9-9.6c0.4-3.1,0.1-6.2,0.1-9.4c6.6,0.7,11,5.9,16.9,8.1
	c19.1,7.2,39,11.8,59.1,15c2.7,0.4,5.3,1.1,8,1.7c1.5,2.9,4.4,0.5,6.4,1.8c1.8,0.7,3.6,1.2,4.5,3.1c-3.3,9.1-12,10.9-19.4,14.2
	C219.7,494.9,219,494.9,218.3,494.9z"/>
<path class="st1" d="M279,476.2c-5.6,6.2-11.2,12.5-16.8,18.7c-1.4,0-2.8,0-4.2,0c-4-2.6-8.8-3.9-11.9-7.8c-1.9-2.4-5.7-4.9-1.3-8.4
	c7-2.5,14.4,2.6,21.3-1.1c3.5-4.2,8.3-2.9,12.7-3.2c0.8,0.3,1,0.7,0.8,1.1C279.5,476,279.2,476.2,279,476.2z"/>
<path class="st1" d="M255.7,21.7c7-5.5,14.1-11.1,21.1-16.6c0.7,0,1.4,0,2.1,0c-0.8,7.3,5.7,12.1,6.7,18.8c-5,1.8-10.1,1.5-15.1,0.1
	c-3.5,0.6-7,0.9-10.4-0.2C259,22.4,256.7,23.4,255.7,21.7z"/>
<path class="st2" d="M21.4,254.4c-7.8-0.7-11-9.6-18.7-10.7c0-0.7,0-1.4,0-2.1c6.3-3.6,12.5-7.2,18.8-10.9
	C23.2,238.6,23.2,246.5,21.4,254.4z"/>
<path class="st3" d="M467.2,268.8c-2,36.3-14.2,69.3-33.7,99.4c-20.9,32.1-48.8,57.2-82.5,75.3c-21.8,11.7-44.8,20.4-69.9,22
	c-4.2-2-8.7-0.2-12.6-1c-1.8,0.1-0.1,2.4-0.6,1.1c-0.1-0.3,0.1-0.5,0.7-0.5c3-0.3,6.1-1.2,8.9,0.9c-4.9,2.3-10,1.9-15.2,1.6
	c-7.6-1.3-15.3-1.4-22.9,0c-5.8,0.4-11.6,0.7-17.1-1.7c1.7-1.9,3.6-0.8,5.3-1.2c-2.9,0.2-6-0.7-9.1,0.8c-29-2.5-55.1-13.5-80-27.9
	c-23.8-13.7-43.3-32.4-60.3-53.6c-24.1-30-39-64.2-43.8-102.6c1.6-3.2,0.8-6.4,0.7-8.6c0.3,0.5,0.3,2-1.3,3.1
	c-2.3-5-1.8-10.2-1.5-15.5c1.4-6.9,1.4-13.9,0-20.8c1.6-42.2,15.2-80.3,39.7-114.5c7.2-10,14.5-20.1,24.2-28.1
	c4.9-2.1,8.7-5.3,10.7-10.4c33.9-29.4,72.5-48.2,117.8-52c4.3,2.1,8.9,0.2,12.9,1.1c1.7,0,0.5-2.4,0.6-1c0,0.1-0.1,0.1-0.3,0.2
	c-2.6,1.1-5.2,1.2-7.5-0.6c13-2.7,26-2.6,39-0.1c-3.2,2.4-6.6,1.6-9.9,1.1c5.8-0.1,11.7,1.2,17.5-0.5c35.5,2.7,67.6,15.4,96,36
	C425,108.5,458.4,158.8,467,224c0.3,2.4,0.1,4.8,0.1,7.3C465.8,243.7,465.7,256.3,467.2,268.8z"/>
<path class="st0" d="M438.1,377.6c0.2,4.4,2,8.5,2.2,13c0.5,9.9-0.9,16.8-13.2,14.4c-4.5-0.9-6.5,1.2-5.9,5.8c0.2,1.4,0,2.8,0,4.2
	c-0.1,14.6-0.1,15.3-14.2,14.9c-7.4-0.2-7.6,4.8-8.5,8.8c-3.6,14.8-3.3,14.9-16.5,9.6c-10.9-4.4-10.9-4.4-11,7.6
	c0,16.8-0.4,17.4-14.7,9.6c-8.3-4.5-11.5-1.5-14.3,5.6c-4.9,12.8-5,12.8-16.5,5.2c-3.8-2.5-8.8-3.7-11-8.4
	c17.5-5.8,33.9-14,49.8-23.1c27.1-15.5,49-36.8,67.8-61.6C433.9,380.9,434.9,378.1,438.1,377.6z"/>
<path class="st0" d="M477.9,254c4.8,4.5,9.6,9,14.1,13.2c-2.7,7.4-14.2,7.6-13.4,14.7c0.7,5.9,6.7,11.5,13.5,16.4
	c-7.1,2.7-12.5,4.7-18.5,7c1.8,1.9,3.4,3.3,4.6,5c8.8,11.7,8.9,12-5.1,16.3c-5.7,1.7-7.5,3.5-3.9,8.9c2.4,3.7,3.8,7.9,5.8,12.1
	c-6.1,1.2-12,2.4-17.7,3.5c-0.1,1-0.4,1.7-0.2,2.3c8.4,22.3,7.9,22.9-19.2,24.4c6-14.5,14.9-27.4,20.9-41.9c8.7-21,12.6-43,16.5-65
	c2.4-2.6,1.5-5.4,0.5-8.2c0-0.7,0-1.4,0-2C477.7,258.6,475.8,255.7,477.9,254z"/>
<path class="st0" d="M21.5,225c-5.1-3.2-8.7-7.8-12.8-12.3c0.8-0.9,1.2-2,2-2.2c13-4.1,13.1-4.1,6.8-16c-1.7-3.2-1.3-5.1,2.3-6.6
	c2.6-1.1,5.7,0.6,8.1-2.1c-2.7-5.6-5.5-11.4-8.3-17.1c0.3-0.6,0.5-1.5,0.9-1.7c16.3-5.1,17.4-5.4,13.1-20.6
	c-2.6-9.2,0.1-10.1,7.5-9.3c3.1,0.3,6.3,0,9.4,0c0.9-0.7,1.8-0.6,2.6,0.2c-13.4,25-22.1,51.6-27.5,79.3
	C22.8,218.5,27.3,224.3,21.5,225z"/>
<path class="st4" d="M53.2,137.1c-0.9-0.1-1.8-0.1-2.6-0.2c-1.8-6.4-3.4-12.9-5.4-19.2c-1.2-3.9-0.7-5.4,3.8-5.9
	c20.4-2.4,20.4-2.5,20.6-23c0-1.7,0-3.4,0-5.9c6.7,1.3,12.7,2.4,18.8,3.6c1.5,1.4-0.2,3.1,0.3,4.6C75.6,105.4,62.8,120,53.2,137.1z"
	/>
<path class="st1" d="M34.1,321.9c-4.4-2.2-8.9-3.5-13.9-2.8c-2.5,0.3-5.4,0-6.1-2.6c-0.3-1.3,1.8-3.5,3.3-4.8c2.9-2.5,6-4.7,10-7.8
	c-3.2-1.2-4.2-1.4-5.1-1.8c-13.5-7.3-13.7-7.5-3.6-18.8c3.3-3.7,2.7-5.9-0.7-8.3c-3.7-2.7-7.6-5.2-12.5-8.5
	c5.9-3.1,10.8-5.7,15.7-8.3c3,4.6-0.5,10.2,2.1,14.9C27,289.3,30.6,305.6,34.1,321.9z"/>
<path class="st5" d="M138.7,51.1c-0.3-5.5,2.8-10.4,2.4-16.1c-0.2-3.1,1.7-5.8,6.2-3.8c3.6,1.7,8.1,1.8,11.5,3.8
	c5.8,3.5,8.5-0.2,11-3.8c8.5-12.5,8.4-12.6,17.4-1.2c-0.9,1.9-2.4,3.1-4.4,3.8C168.1,39.6,153.4,45.4,138.7,51.1z"/>
<path class="st5" d="M182.8,33.8c1.5-1.3,2.9-2.5,4.4-3.8c7.7-2.3,9.5-10.2,13.3-15.5c4.3-6.1,5.9-4.7,10.8-1.5
	c4.8,3.2,8.1,8.1,13.1,10.8c-2.9,3.1-7.5-1.2-10.2,2.5C203.7,28.8,193.3,31.3,182.8,33.8z"/>
<path class="st6" d="M92.8,415.5c-6.8-0.9-13.4-3.1-20.4-2.2c-7.4,0.9-8.5-2.1-5-8.1c1.7-2.9,3-6.1,4.6-9.6
	c-3.9-1.3-7.3-2.4-10.8-3.6c-1.9-2.3-2.6-4.9-0.4-7.1c2.5-2.7,4.7,0.3,7,1.1C76.2,395.8,84.5,405.6,92.8,415.5z"/>
<path class="st7" d="M289.3,25.9c3.9-5,10.4-5.5,15.1-9.4c5-4.2,9.4-3.5,11.2,3.3c1.2,4.4,5.7,9.4,2.3,13.3c-3.4,3.9-8.2-1-12.4-1.6
	c-4.7-0.7-9.3-2.4-14-3.7C290.5,27.5,289.8,26.8,289.3,25.9z"/>
<path class="st0" d="M142.8,448.9c0.1,2.2,0,3.8-2.9,4.2c-6.3,0.9-12.5,2-18.6,3.6c-4.1,1.1-5.7,0.1-5.6-4.1
	c0.1-6.2,0-12.3-0.1-18.5C124,440.3,133.2,445,142.8,448.9z"/>
<path class="st6" d="M115.8,434.3c-7.8,0.8-14.2,5.4-23.3,8.8c0-9.8,0-18.8,0-27.8C101.6,420.1,108.8,427,115.8,434.3z"/>
<path class="st1" d="M352.3,46.7c1.7,0,3.5,0.5,5.1,0c22.2-6.8,22.5-6.6,21.8,17.2l0.2-0.2c-9.9-3.3-17.9-10.1-27.2-14.7
	c-0.6-0.6-0.8-1.1-0.6-1.6C351.9,46.9,352.1,46.7,352.3,46.7z"/>
<path class="st8" d="M88.7,91c-2.4-1.4-0.5-3-0.3-4.6c3.9-4.9,1.8-10.6,2.1-16c0.3-5.3,2.4-8.3,7.8-6c5.8,2.4,11.6,0.8,17.3,1.2
	c0.6,0.4,0.8,0.8,0.6,1.2c-0.2,0.4-0.4,0.6-0.6,0.6C106.1,74.6,96.6,81.9,88.7,91z"/>
<path class="st6" d="M426.9,81c-3.2,8,0.2,16.5-2.7,25.5c-7.7-8.1-14.6-15.3-23.1-24.3C411,84.1,418.1,78.9,426.9,81z"/>
<path class="st5" d="M310.3,467.8c-0.3,1.3-0.3,2.7-0.9,3.8c-9,18.9-9,18.9-26.4,6.7c-2-4.3,4.2-1.8,3.9-4.7
	C294.8,471.7,302.6,469.7,310.3,467.8z"/>
<path class="st1" d="M352.3,46.7c0,0.8-0.1,1.6-0.1,2.3c-9.6-4.2-19.2-8.5-30.3-13.4c10.2-2.4,18.8-4.5,27.4-6.6
	C350.3,34.7,351.3,40.7,352.3,46.7z"/>
<path class="st2" d="M54.9,369.6c-6.6-1.2-13.1-3.3-22.1-2.2c5.5-7.6,5.4-16.1,11.8-21.6c4.1,7.2,8.1,14.4,12.2,21.5
	C56.1,368.1,56.2,369.4,54.9,369.6z"/>
<path class="st6" d="M379.2,63.9c3.7-0.2,7.3-1,10.9-2c12.3-3.5,12.4-3.2,12.4,9.6c0,2.7,0,5.5,0,10.3c-8.6-6.5-17.1-10.5-23.1-18.1
	C379.4,63.7,379.2,63.9,379.2,63.9z"/>
<path class="st8" d="M115.7,67.4c0-0.6,0-1.2-0.1-1.8c0.1-6.7-2-15.5,3.1-19.2c5.1-3.8,11.4,4.4,17.9,4.7
	C132,59.6,122.2,61.5,115.7,67.4z"/>
<path class="st1" d="M42.5,344.2c-7.2,0.2-13.7-2.1-20.2-4.7c3.5-5.9,6.7-12.1,11.7-17C38.9,328.9,40.8,336.5,42.5,344.2z"/>
<path class="st4" d="M54.9,369.6c0.6-0.8,1.2-1.5,1.8-2.3c3.7,6.2,7.4,12.4,11.1,18.6c-5.8-1.9-7.3,0.8-6.6,6
	c-12.5,0.1-13.4-1.1-9.7-11.9C52.8,376.6,53.8,373.1,54.9,369.6z"/>
<path class="st9" d="M228.7,22c0.7-1.1,1.3-2.3,2.1-3.3c11.7-13.3,11.7-13.3,21.1,3c-4.6,3-10.2-0.6-14.9,2.2
	c-1.9,0.1-3.9,0.1-5.8,0.2C228.8,25.3,228.6,23.9,228.7,22z"/>
<path class="st10" d="M467.2,268.8c-3.1-12.5-3-25.1,0-37.6C468.2,243.7,468.3,256.3,467.2,268.8z"/>
<path class="st11" d="M243.1,480.3c-1.2,0-2.5,0-3.7,0c-1.8-0.1-3.4-0.4-4.4-2.1c1-0.8,2.1-1.1,3.4-1.1c6.7,0.5,13.4-1.1,20,0.9
	c2.6,0.4,5.1-3,7.8-0.4C259,483.1,250.8,478.9,243.1,480.3z"/>
<path class="st12" d="M21.4,254.4c0-7.9,0-15.8,0.1-23.6c0.7-0.6,1.5-1.2,2.2-1.8c-0.1,9.1-0.2,18.2-0.3,27.4c-0.5,0.9-1,0.9-1.5,0
	C21.6,255.7,21.4,255.1,21.4,254.4z"/>
<path class="st13" d="M239.2,467.5c7.6-3.1,15.3-3,22.9,0C254.5,468.4,246.9,468.4,239.2,467.5z"/>
<path class="st14" d="M289.3,25.9c0.7,0.6,1.4,1.3,2.1,1.9c-7-1.3-14.3-0.5-20.9-3.8c5,0,10.1-0.1,15.1-0.1
	C286.9,24.6,288.1,25.2,289.3,25.9z"/>
<path class="st15" d="M237,23.9c4.5-3.9,10-1.1,14.9-2.2c1.3,0,2.5,0,3.8,0c1.7,0.2,3.4,0.4,4.4,2.1C252.4,23.8,244.7,23.8,237,23.9
	z"/>
<path class="st16" d="M106.8,86.5c0.1,7.3-4.7,9.4-10.7,10.4C99.7,93.4,103.2,90,106.8,86.5z"/>
<path class="st10" d="M276.8,34.6c-6.1,4-12.5,0.7-18.7,0.2c3.7-0.3,7.4-0.6,11.1-0.8C271.7,34.2,274.3,34.4,276.8,34.6z"/>
<path class="st17" d="M32.2,239.6c3,6.9,3,13.9,0,20.8C31.3,253.5,31.3,246.5,32.2,239.6z"/>
<path class="st18" d="M258.4,478c-7.1,0-14.2,0.1-21.3,0.1c-0.7-0.4-0.9-0.8-0.7-1.2c0.2-0.4,0.4-0.7,0.6-0.7
	C244.1,476.8,251.6,473.7,258.4,478z"/>
<path class="st19" d="M228.7,22c0.8,0.7,1.6,1.4,2.5,2c-5.4,2.6-11.3,1.8-17,2.3c2.4-4.9,6.9-1.2,10.2-2.5
	C226.6,24.9,227.2,22.5,228.7,22z"/>
<path class="st20" d="M477.9,254c-0.2,2.3,0.3,4.8-2,6.5c0-6.3,0-12.6,0-18.9c2.8,2.4,1.5,5.7,2,8.6
	C477.9,251.5,477.9,252.7,477.9,254z"/>
<path class="st21" d="M21.8,256.3c0.5,0,1,0,1.5,0c0.3,5.6,2,11.1,0.1,16.7c-3.8-4.5-1.1-9.9-2.1-14.9
	C21.4,257.5,21.6,256.9,21.8,256.3z"/>
<path class="st22" d="M230.2,34.1c3,0.3,6,0.6,9.1,0.9c-5,1.2-10,3-14.7-0.4C226.4,34.4,228.3,34.2,230.2,34.1z"/>
<path class="st17" d="M277.3,465.8c-3.6-0.2-7.3-0.5-10.9-0.7c5-1.3,9.9-3.1,14.6,0.3C279.8,465.6,278.6,465.7,277.3,465.8z"/>
<path class="st23" d="M21.5,225c3.5-1.8,0.8-6.7,4.2-8.5c-0.2,4.4,1.1,9-2.2,12.8C24.7,226.9,21.6,226.6,21.5,225z"/>
<path class="st24" d="M287,473.6c2,4.3-4.1,1.9-3.9,4.7c-1.3-0.7-2.7-1.4-4-2.1c0-0.6,0-1.1-0.1-1.7
	C281.6,474.2,284.3,473.9,287,473.6z"/>
<path class="st13" d="M218.3,465.4c3.2-3.3,6.9-1.4,10.5-0.3c-2.2,0.2-4.5,0.4-6.7,0.7C220.8,465.6,219.6,465.5,218.3,465.4z"/>
<path class="st25" d="M475.9,262.5c3,2.9,2.5,6.8,1.4,9.7c-0.7,2.1-1.3-0.9-1.9-1.5C475.6,268,475.8,265.3,475.9,262.5z"/>
<path class="st10" d="M33.7,275.9c0.3-1.6,0.5-3.2,0.8-4.8c1.5,3.5,2.8,7-0.2,10.3C34.1,279.5,33.9,277.7,33.7,275.9z"/>
<path class="st26" d="M237,476.2c0.1,0.6,0.1,1.3,0.1,1.9c-0.7,0-1.4,0.1-2.1,0.1c-1.9-1.2-5.6,2.2-6-2.5
	C231.6,475.9,234.3,476.1,237,476.2z"/>
<path class="st27" d="M310.7,333.7c-15.3-19-29.1-39.3-48.5-54.7c-2.5-2-1.1-2.8-0.5-4.8c2-6.2,3.3-12.6,5.4-20.9
	c-5.3,4.3-9.8,6.5-9.4,12.7c-2,5.7,0.4,11.8-1.5,17.5c-1.2,2.6-2.8,5.2-5.9,4.7c-3.6-0.6-4.7-3.8-4.8-7
	c-0.4-11.6-6.9-16.5-17.8-16.9c-3-0.8-5.7-2-5.5-5.9c-3.8-13.8-3.1-15,8.1-14.3c3.9,1,7.8,1,11.6,0c0.6,0.1,1.1-0.1,1.5-0.4
	c1.1-3.5-1.6-2.9-3.4-3.1c-3.7-0.4-7.6,0.6-11.3-0.7c-2.9-8.4,3.6-7.8,8.4-8.9c1.2-1.2,2.7-0.9,4.1-0.6c5.3,0.6,10.6,2.1,15.9,0.7
	c-6.3-3.5-13.9,3.3-19.7-2.7c-0.7-3.9,2.2-10.1-6.6-8.2c-3.1,0.7-1.5-3.8-2.3-5.8c-0.8-1.3-1.3-2.5,0.6-3.4
	c3.3-6.8,0.3-14.8,3.8-21.6c4-3.4,7.9-2.1,11.4,0.6c7.5,6,15.2,5.7,23.4,1.9c5.2-2.4,10.7-4.7,15.4,0.3c5.1,5.2,7.7,11.6,5.1,19
	c-1.6,4.6-3.2,9.2-1.4,14.1c2.2,6,5.2,12.5,12.8,10.3c7.5-2.2,8-9.4,7.8-16.2c-0.1-2.5-1.2-4.6-2-6.9c-3.3-8.2,0.1-12.2,8.1-14.3
	c16.2-4.2,32.3-8.4,47.7-15.1c13.7-5.9,26.3-13.5,37-24.7c-15-1.4-29.3,1.8-43.8,3.5c-1.6,0.4-3.2,0.7-4.8,1
	c-23.2,4.2-45.1,13-68,18.2c-9.1,2.1-18.3,3.7-27.4,5.8c-2.2,0.6-4.4,0.8-6.6,0.9c-5,0.1-9.9-0.8-14.8-0.9
	c-18.1-0.5-36.2-1.1-54.4-1.6c-2.6,1-5.2,1.8-7.6-0.6c-5.6-2.8-12-0.8-20.4-3.6c18.3-6,33.5-13.9,51.1-13c4.9-1.3,9.7-1.2,14.6,0
	c4.9-0.1,9.8-0.2,14.7-0.3c6.2-1.7,12.3-3.5,18.8-1.8c24.3-1.7,47.8-7.3,71.3-13.4c2-0.5,3.9-0.8,5.9-1.2c0.8-0.7,1.6-1.3,2.7-1.5
	c-2.1-1.5-4.3-1.9-6.6-0.8c-2.8,0.2-5.6,0.5-8.3,0.7c-6.9,0.6-13.9,2.1-20.7-0.8c-5.1-32.7-13.4-64.7-23.5-96.1
	c-2.9-9.1-1-9.6,7.2-8.4c37.3,5.1,70.7,19.3,100.4,42.2c84.8,65.5,104,186.3,48.3,273.3c-14.3,22.4-31.1,42.1-52.9,57.5
	c-4.2,3-6.6,3.1-9.4-2c-4.8-9.2-11.8-17.2-14.5-27.6c-1-3.9-1.8-6.6,2.6-8.3c2-2.5,4.9-3.8,7.2-6c2.7-2.5,6.2-3.8,8.9-6.3
	c2.2-9.3,6.5-18.1,6.9-27.8c-0.5-4.7,0.7-8.8,4-12.1c2.8-2.8,3.9-6.3,4.4-10c1.3-4.9,4.1-9,7-13c2.4-2.3,3.2-5,2-8.2
	c-3.4-4.8-3.8,1.5-5.8,1.6c-6.5,5.7-10.8,13.3-17.2,19.1c-4.2,3.8-8.4,7.1-14.3,7.5c-4.4-0.6-8.3,3.1-12.8,1.6
	c-3.5-2.4-3-6.3-3.6-9.8c-0.5-2.1-0.4-4.2-0.1-6.3c1.2-4.7,1.9-9.4,2.4-14.2c0.7-5.8,1.8-11.6,1.8-17.5c1.4-6.7,2.5-13.5,2-19.5
	c-0.5,2.9,0.5,6.9-0.7,10.8c-0.6,2-0.3,4.1-0.8,6.2c-0.8,5.3-1.2,10.7-1.7,16c-1.1,5.8-1.2,11.7-2.9,17.4
	c-1.9,6.3-8.3,8.3-12.2,12.6c-3,2-6.2,3.9-8.1,7.2C316.4,331.3,314.8,334.5,310.7,333.7z"/>
<path class="st27" d="M190.9,80.1c-2.2,4.1-2.1,8.5-1.8,13c1,2,1.7,3.9-0.5,5.6c-3.4,17.5-3,35.2-2.7,52.9c0.1,7-1.5,9.5-8.5,10.8
	c-28,5.1-56.1,9.6-83.3,18c-1.3,0.4-2.7,0.6-4,1c-5.4,2.1-13.7,3.2-13.5,9.3c0.2,6,8.8,5.7,13.8,6.7c10.5,2,20.8,5.8,31.7,4.4
	c2.7-1,5.3-1.7,7.8,0.4c12,3,24.2,1.5,36.4,2c11.5,0.4,12.7,1.8,9.8,13.6c-2.3,6.6-7.9,12.6-3.6,20.3c6.9,8.6,6.9,8.6,14.3,1.3
	c1.4-1.4,3.1-2.7,4.7-3.8c1.7-1.4,2.9-5.4,5.7-0.8c5.1,8.3,5.6,17.1,2.1,25.9c-2.3,5.8-7.2,4.8-11.3,2.5c-10-5.6-17-1.1-23.8,5.8
	c-3.6,3.7-7.1,8.6-11.6,10.3c-23.7,9.1-40,26.7-54.9,46.2c-3.3,4.3-7.7,7.8-11.5,11.7c-2,5-5.5,8.5-10.4,10.8c-4,4.7-6.8,5.4-10-1.3
	c-9.9-20.8-18.7-41.9-21.3-65.1c-0.3-2.4-1.2-4.7-1.8-7c-2-1.7-1.5-3.7-0.5-5.7c0-11.9,0-23.8-0.1-35.7c-0.9-2.6-1.8-5.2,0.6-7.6
	c4.2-26.2,11.9-51.2,24.6-74.6c26.3-48.5,66.7-79.8,118-98c4.9-1.7,8.9-3.3,8,4.5c0.9,1.4,1.1,2.7-0.3,3.9c-2.5,4.8-2,9.9-1.8,15
	C192.2,77.6,192.3,78.9,190.9,80.1z"/>
<path class="st28" d="M310.7,333.7c2.5-1.5,4.6-3.5,5.9-6.2c2.9-1.8,5.2-4.4,8.3-6c2.6-5.2,7.2-8.1,12.1-10.6
	c0.8-1.3,1.7-1.3,2.7-0.1c0.7,1.4,1.4,2.8,2.1,4.2c-1.2,4.2-6.5,9.2,2.2,11.5c3.6-0.7,6.7-3.4,10.6-3.1c10.2-3,16.5-10.7,22.6-18.6
	c2.6-3.3,4.9-6.6,8.6-8.6c1.9-1.4,3.9-1.3,6.1-0.9c4,3.1,3,6.3,0.2,9.5c-0.4,4.7-4.5,7.5-6.1,11.7c-2.6,6.6-7.1,12-11.8,17.1
	c-8,5.5-11.9,11.6-5.2,21.2c3,4.4,3.9,10.3,0.1,15.5c-2.7,1.5-5.4,3-8.2,4.4c-3.2,2.9-7.3,2.2-11.1,2.9c-8.5,1.7-17.1,3.1-25.5,5.1
	c-8,1.9-12,8.5-16.2,14.9c-3.2,4.9-4.9,14-12,12.1c-5.6-1.6-3.6-10.3-4.4-15.9c-0.1-0.7,0-1.4-0.1-2.1c-4.2-19.8,1.6-36.4,15.7-50.6
	C308.9,339.1,309.6,336.1,310.7,333.7z"/>
<path class="st3" d="M232.8,186.9c4.7-2.4,9.8-1.6,14.8-1.6c1.9,1.3,4,0.7,6,0.8c0.6,0,1.4,0.3,1.9-0.5c-1.1,0.5-1.8,0-2.4-0.9
	c33-5.7,64.1-18.8,97.1-24.5c3.1,1.5,6.3,0.4,8.2,0.7c-0.7,0.4-2.6,0.4-4.4-1.2c14.2-3.4,28.7-4.3,43.1-6c2.7-0.3,6.2-0.6,7.1,2.7
	c0.7,2.5-1.8,3.9-3.7,5.6c-24.9,22-55.7,30.9-86.8,38.9c-7.4,1.9-9.1,4.9-5.4,11.4c-1,1.9-2.3,3.1-4.6,2.7
	c-12-2.3-11.5,7.7-14.3,14.5c-2.4,0.9-3.3-1.8-5.1-2.2c-2.8-5.4-2.4-10.8,0.8-15.7c4.6-7.2,0.8-12.7-3.3-17.9
	c-4.5-5.5-8.7-0.6-12.9,1.1c-9.9,3.9-19.4,6.1-27.4-3.8c-2.4-2.9-5.4-2.6-8.5-1.6C232.9,188.6,232.9,187.7,232.8,186.9z"/>
<path class="st29" d="M203.7,195.5c4.8,1.7,11.7,2.3,9.6,8.3c-1.9,5.4,3.7,16.4-7.7,15.8c-8-0.4-12-7.6-12.3-15.4
	C193.1,197.4,198.8,196.5,203.7,195.5z"/>
<path class="st30" d="M176.3,222.1c10.2-1.3,12.9,4.7,12.8,13.3c-1.1,5-4.3,8.8-9.1,9.6c-5.3,0.9-7.1-4.2-9.1-8.1
	C169.6,230.8,169.7,225.2,176.3,222.1z"/>
<path class="st31" d="M172.6,236.8c6.7,12.4,11.4,3.1,16.6-1.5c0.8,0.1,1.5,0.1,2.2,0.2c-1.7,5.8-5.1,10.9-10.9,12.1
	c-5.2,1.1-8.6-3.2-10.2-8.2C170.9,238.4,171.1,237.1,172.6,236.8z"/>
<path class="st32" d="M240.7,231.4c-1.2-0.1-2.4-0.2-3.6-0.3c0.1-0.9,0.2-1.8,0.3-2.6c7.7-0.3,15.3-0.6,23-0.8c1.6,0,4-0.6,3.9,2
	c-0.1,2.2-1.5,3.8-4.1,3.5C253.6,232.7,247.1,232.6,240.7,231.4z"/>
<path class="st33" d="M172.6,236.8c-0.7,0.9-1.4,1.7-2.2,2.6c-3.8-8.7-2.8-16.2,5.7-21.7c0.1,1.5,0.2,2.9,0.3,4.4
	C173.3,226.5,172.4,231.5,172.6,236.8z"/>
<path class="st34" d="M215,224.8c1.4-5,3.3-8.4,7.8-9.3c0.4-0.1,1.7,1.5,1.6,2C223.2,221.5,221.2,224.7,215,224.8z"/>
<path class="st10" d="M249.6,166.1c-6.2,1-12.4,2.4-18.8,1.8c-1-2.4-0.7-4,2.3-3.6C238.6,164.9,244.5,162.3,249.6,166.1z"/>
<path class="st10" d="M129.8,202.1c-2.6-0.1-5.2-0.3-7.8-0.4c7.5-4.2,15.3-0.6,23-0.3C139.9,201.6,134.9,201.9,129.8,202.1z"/>
<path class="st35" d="M75.7,347.9c2.6-4.5,6.5-7.6,10.4-10.8C85.2,343.2,83,347.9,75.7,347.9z"/>
<path class="st36" d="M293.8,149.1c6.9,0.3,13.8,0.5,20.7,0.8C307.5,152.2,300.5,153.7,293.8,149.1z"/>
<path class="st37" d="M322.8,149.2c3.4-2.7,7.1-1.3,11.3-1.6c-1.3,5-4.5,4.1-7.3,3.9C326.4,149.2,324.1,150,322.8,149.2z"/>
<path class="st38" d="M228.7,239.9c4.8,0,9.7-0.3,14.4,0.2c2.9,0.3,3.1,2.1,0.3,3.6C239.3,239.3,232.8,244.4,228.7,239.9z"/>
<path class="st39" d="M349.6,377.4c3.2-2.9,7-3.4,11.1-2.9c-0.9,5-5.2,4.1-8.5,5.1C351.3,378.9,350.5,378.1,349.6,377.4z"/>
<path class="st40" d="M256.2,283.5c0-5.9-0.9-11.8,1.5-17.5C257.7,271.9,259.8,277.9,256.2,283.5z"/>
<path class="st13" d="M188.6,98.6c0.2-1.9,0.3-3.7,0.5-5.6c3.4,4.7,1.7,9.7,0.4,14.7C189.2,104.7,188.9,101.7,188.6,98.6z"/>
<path class="st16" d="M216.1,168.1c-4.9,0-9.7,0-14.6,0C206.4,165.2,211.3,165.2,216.1,168.1z"/>
<path class="st10" d="M170.9,184.7c2.5,0.2,5.1,0.4,7.6,0.6c-3.8,3.3-8.1,1.7-12.5,1.6C167,184.1,169.4,185.5,170.9,184.7z"/>
<path class="st41" d="M229.1,211c-0.2,1.1-0.4,2.3-0.6,3.4c-3.3-3.1-1.3-6.7-0.4-10.3C228.4,206.4,228.8,208.7,229.1,211z"/>
<path class="st13" d="M190.9,80.1c0.1-1.3,0.2-2.5,0.3-3.8c3.4,3.2,1.4,6.9,0.3,10.5C191.3,84.6,191.1,82.3,190.9,80.1z"/>
<path class="st10" d="M42.8,225.6c-0.2,2.5-0.4,5.1-0.6,7.6c-3-2.7-1.8-6.2-1.7-9.5c0.1-1.5,1.2-0.9,1.7,0
	C42.6,224.2,42.6,225,42.8,225.6z"/>
<path class="st13" d="M193,61.3c0.1-1.3,0.2-2.6,0.3-3.9c3,3.2,2.1,6.8,1.1,10.7C192.3,66,193.6,63.5,193,61.3z"/>
<path class="st38" d="M241.9,244.1c-3.9,2.4-7.8,2.1-11.6,0C234.1,244.1,238,244.1,241.9,244.1z"/>
<path class="st10" d="M42.3,268.9c0.2,1.9,0.3,3.8,0.5,5.7c-0.4,0.9-0.7,1.7-1.1,2.6c-0.4-0.3-1.1-0.6-1.1-0.9
	C40.4,273.6,39.7,270.8,42.3,268.9z"/>
<path class="st16" d="M222.1,258.4c1.8,2,3.7,3.9,5.5,5.9C224,264,219.4,264.7,222.1,258.4z"/>
<path class="st42" d="M368.9,370.1c0.3-5.9,0.5-12-3.4-16.9c-5.9-7.3-6.4-13.3,2.9-18c1.7-0.9,3-2.7,4.5-4c4.6,1.4,2.2,6.2,4.3,8.8
	c0.6,1.5,2.3,3.7,1.8,4.4c-5,7.3-6.8,15.3-6.8,23.9C372.2,368.9,370,369.5,368.9,370.1z"/>
<path class="st43" d="M284.3,227.3c1.8,0.6,3.6,1.1,5.4,1.7c7.5,1.4,11.4-1.8,12-9.4c0.1-2,0.7-4,2.7-5.1c1.3-0.7,2.6-1.4,3.9-2.1
	c2,2.6,2.1,5.8,1.9,8.8c-0.4,7.8-1.4,16.1-10.3,18C291.5,240.9,287.3,234.3,284.3,227.3z"/>
<path class="st44" d="M377.2,340c-1.4-2.9-2.9-5.9-4.3-8.8c4.9-4.4,6.9-11.4,12.9-14.9c1.2,4.2,0.9,8.3-2.9,10.8
	C378,330.3,378.1,335.2,377.2,340z"/>
<path class="st45" d="M400.7,258.4c-1.3,6.4-2.7,12.8-4,19.3c-0.3,1.6-0.4,3.9-2.8,3.4c-2.3-0.4-2.3-2.4-1.2-4
	c3.9-5.7-0.4-15,8.2-18.6L400.7,258.4z"/>
<path class="st46" d="M342,275.2c1.1-8.3,2.2-16.7,3.3-25c0.9,0.1,1.8,0.3,2.7,0.4c-1.2,9.1-2.5,18.1-3.7,27.2
	C342.9,277.4,342.7,276.1,342,275.2z"/>
<path class="st47" d="M343.8,327.2c-2.4-0.2-6.7,3.5-6.7,0.5c0-4.1-1.6-10.4,4.7-12.8c0.8,3.5-2.5,7.8,2.1,10.5
	c0.7,0.4,1,0.8,0.7,1.2C344.3,327,344,327.2,343.8,327.2z"/>
<path class="st48" d="M342,275.2c0.7,0.8,1.5,1.7,2.2,2.5c-0.4,6.3,0.6,12.8-2.1,18.9c-2.1-0.9-0.9-3.3-2.1-4.6
	C340.7,286.4,341.3,280.8,342,275.2z"/>
<path class="st49" d="M340,292.1c0.7,1.5,1.4,3.1,2.1,4.6c0,4.8,0.6,9.7-2.5,14c-0.9,0-1.8,0.1-2.7,0.1
	C338,304.6,339,298.3,340,292.1z"/>
<path class="st3" d="M240.7,231.4c6.5,0.3,13.2-2,19.4,1.7C253.1,239,247.3,230.8,240.7,231.4z"/>
<path class="st50" d="M391.6,296.7c-2-0.2-3.9-0.4-5.9-0.6c2.2-2.8,4.4-5.7,6.8-8.7c2.8,2.9,0.4,6.1,1.7,8.7
	C393.5,296.9,392.6,297.1,391.6,296.7z"/>
<path class="st51" d="M266.6,252.9c-0.9-5.1,1.3-8,4.8-12.3C272.1,246.6,271.6,250.1,266.6,252.9z"/>
<path class="st52" d="M343.8,327.2c0.1-0.6,0.1-1.2,0.1-1.8c3.6-0.3,6.1-6.6,10.7-2.2C351.4,325.9,347.8,327.2,343.8,327.2z"/>
<path class="st53" d="M363,280.6c-0.1,2-1.2,3.2-3.1,2.9c-1.1-0.2-2.5-1.3-2.8-2.3c-0.7-1.9,0.8-3.1,2.5-3.5
	C361.6,277.4,362.5,278.9,363,280.6z"/>
<path class="st54" d="M369.2,243.8c2,0.5,2.5,2,2,3.9c-0.4,1.5-1.4,2.4-3,2c-1.9-0.5-2.8-2-2.1-3.9
	C366.4,244.3,367.4,243.3,369.2,243.8z"/>
<path class="st55" d="M386.3,249.5c-1.8-0.7-2.9-1.9-2.6-3.8c0.4-2.1,1.9-2.6,3.8-2.1c1.5,0.4,2.4,1.4,2.2,2.9
	C389.5,248.3,388.3,249.4,386.3,249.5z"/>
<path class="st56" d="M400.9,258.6c-2-2.8-4.5-5.5,0.6-8.9c2.1,3.4,1.5,6.1-0.8,8.8C400.7,258.4,400.9,258.6,400.9,258.6z"/>
<path class="st57" d="M391.6,296.7c0.9-0.2,1.7-0.4,2.6-0.6c2.9,3.8,3.9,7.2-2.3,8.6C392.2,302,393.8,299.2,391.6,296.7z"/>
<path class="st58" d="M360.3,291c0.4,2.2-0.4,3.2-1.8,3.6c-1.9,0.6-3.2-0.2-3.7-2.1c-0.4-1.5,0.4-2.5,1.9-2.9
	C358.5,289.1,359.9,289.6,360.3,291z"/>
<path class="st59" d="M324.9,321.4c-1.9,3.2-4,6.1-8.3,6C318.5,324.2,320.3,321,324.9,321.4z"/>
<path class="st17" d="M354,159.8c2.3,0.2,4.5,0.4,9,0.9c-6,1.7-9.5,2.4-12.8-0.4C351.5,160.1,352.7,160,354,159.8z"/>
<path class="st60" d="M371.4,272.5c-0.4,1.3-0.8,2.6-2.6,2.3c-1.6-0.2-2.2-1.4-2.1-2.7c0.2-1.3,0.8-2.6,2.5-2.4
	C370.9,269.9,371.2,271.3,371.4,272.5z"/>
<path class="st61" d="M253.2,184.8c0.9,0.4,2.3,0.5,2.6,1.1c0.6,1.4-0.9,1.2-1.7,1.2c-2.3,0.1-4.7,0.4-6.4-1.8
	C249.5,185.1,251.3,185,253.2,184.8z"/>
<path class="st62" d="M304.4,214.4c-0.2,3.8,0.2,7.7-0.7,11.3c-2,7.7-8.2,8.9-14,3.3c0.7-3.4-5-7.2-1.7-9.1
	c4.9-2.8,7.9-7.1,12.2-10.2C300.3,209.6,302.9,212.8,304.4,214.4z"/>
<g id="Layer_2" class="st63">
	<circle class="st64" cx="250" cy="250" r="207.5"/>
</g>
</svg>
